# File created by Blade
# Date/Time:  Wed Jan 21 16:27:40 2015
# Frame Rate: 120.000 fps
#------------------------------------------------------
:FULLY-SPECIFIED
:DEGREES
846
root 17.776297 7.920186 -20.621329 -185.934162 32.836772 -203.354247
Spine 39.865442 -21.268248 -11.929883
Head 15.703614 -23.060091 4.127246
LeftShoulder 7.887244 -27.273564 1.390789
LeftArm 7.039625 41.452621 -72.913653
LeftForeArm 3.656663 -0.000000 53.851207
LeftHand -17.405417 -0.000000 34.549932
LeftHandThumb1 -26.253704 0.000000 33.147579
RightShoulder -5.948051 -11.785748 15.275959
RightArm 20.318361 -6.966494 66.623506
RightForeArm -41.339453 -0.000000 38.061726
RightHand 6.127798 -0.000000 -25.260279
RightHandThumb1 -24.326973 -0.000000 -32.862282
LeftUpLeg 18.310678 -8.265207 36.577863
LeftLeg 40.325457 -0.000000 -0.000000
LeftFoot 3.926213 51.596628 0.197824
LeftToeBase 20.839720 -0.000000 -0.000000
RightUpLeg -99.833454 -38.673123 3.958956
RightLeg -4.433382 -0.000000 0.000000
RightFoot 22.430240 -39.537476 -7.435672
RightToeBase 13.749270 -0.000000 -0.000000
847
root 17.784487 7.915853 -20.639630 -185.887590 32.820249 -203.370545
Spine 39.701924 -21.303106 -11.978858
Head 15.576339 -23.066241 4.235802
LeftShoulder 7.805014 -27.159796 1.401132
LeftArm 6.892550 42.066854 -72.953305
LeftForeArm 6.013887 0.000000 53.899221
LeftHand -16.893103 0.000000 35.404556
LeftHandThumb1 -26.253704 0.000000 33.147579
RightShoulder -5.972072 -11.761194 15.296579
RightArm 20.295386 -7.151164 66.471420
RightForeArm -41.210143 -0.000000 37.917253
RightHand 6.145478 -0.000000 -24.842988
RightHandThumb1 -24.326973 -0.000000 -32.862282
LeftUpLeg 18.298620 -8.244010 36.559959
LeftLeg 40.299089 -0.000000 -0.000000
LeftFoot 4.112203 51.563112 0.359438
LeftToeBase 20.680126 -0.000000 -0.000000
RightUpLeg -99.887383 -38.723086 3.894431
RightLeg -4.372083 -0.000000 0.000000
RightFoot 22.934386 -39.489851 -7.851318
RightToeBase 14.580224 -0.000000 -0.000000
848
root 17.791163 7.910502 -20.657227 -185.829405 32.795044 -203.391118
Spine 39.533360 -21.354160 -12.043941
Head 15.436807 -23.063742 4.349943
LeftShoulder 7.743223 -27.106909 1.405694
LeftArm 6.728680 42.741817 -72.955434
LeftForeArm 8.198567 0.000000 53.920648
LeftHand -16.269975 -0.000000 35.759893
LeftHandThumb1 -26.253704 0.000000 33.147579
RightShoulder -5.938015 -11.784061 15.306898
RightArm 20.278851 -7.323859 66.322844
RightForeArm -41.034637 -0.000000 37.768347
RightHand 6.112552 -0.000000 -24.731539
RightHandThumb1 -24.326973 -0.000000 -32.862282
LeftUpLeg 18.268346 -8.237733 36.536176
LeftLeg 40.250205 -0.000000 -0.000000
LeftFoot 4.152473 51.619485 0.346411
LeftToeBase 20.729798 -0.000000 -0.000000
RightUpLeg -99.927659 -38.788485 3.800339
RightLeg -4.326367 -0.000000 0.000000
RightFoot 23.346982 -39.478756 -8.238351
RightToeBase 15.506862 -0.000000 -0.000000
849
root 17.796992 7.905009 -20.675940 -185.780132 32.764439 -203.407927
Spine 39.387734 -21.408659 -12.093679
Head 15.270005 -23.051226 4.458762
LeftShoulder 7.687345 -27.052004 1.376187
LeftArm 6.674326 43.513138 -72.828030
LeftForeArm 10.337279 -0.000000 53.968376
LeftHand -15.938488 -0.000000 36.246203
LeftHandThumb1 -26.253704 0.000000 33.147579
RightShoulder -5.901921 -11.846816 15.296494
RightArm 20.271054 -7.480975 66.179793
RightForeArm -40.748436 -0.000000 37.653775
RightHand 6.217833 0.000000 -25.279847
RightHandThumb1 -24.326973 -0.000000 -32.862282
LeftUpLeg 18.252695 -8.241369 36.512061
LeftLeg 40.203176 -0.000000 -0.000000
LeftFoot 4.228009 51.642983 0.405747
LeftToeBase 20.705790 -0.000000 -0.000000
RightUpLeg -99.977960 -38.856969 3.737378
RightLeg -4.290359 -0.000000 0.000000
RightFoot 23.676370 -39.493729 -8.616424
RightToeBase 16.157452 -0.000000 -0.000000
